<?xml version="1.0"?><svg fill="#ffffff" xmlns="http://www.w3.org/2000/svg"  viewBox="0 0 50 50" width="50px" height="50px">    <path d="M 2.9902344 1.9902344 A 1.0001 1.0001 0 0 0 2.2929688 3.7070312 L 46.292969 47.707031 A 1.0001 1.0001 0 1 0 47.707031 46.292969 L 44.414062 43 L 50 43 L 50 40.03125 L 33.349609 26.927734 C 31.948601 28.147197 31.321323 28.692275 30.671875 29.257812 L 29.255859 27.841797 C 31.929992 25.512994 48.12907 11.413842 50 9.7851562 L 50 7 L 8.4140625 7 L 3.7070312 2.2929688 A 1.0001 1.0001 0 0 0 2.9902344 1.9902344 z M 0 7 L 0 9.78125 C 3.012 12.40325 20.299016 27.450578 21.666016 28.642578 C 23.072016 29.867578 24.466 30 25 30 C 25.175 30 25.448344 29.981922 25.777344 29.919922 L 2.859375 7 L 0 7 z M 0 12.431641 L 0 37.525391 L 15.115234 25.589844 C 10.214234 21.322844 3.231 15.244641 0 12.431641 z M 50 12.435547 C 46.949 15.090547 39.855766 21.264797 34.884766 25.591797 L 50 37.486328 L 50 12.435547 z M 16.650391 26.925781 L 0 40.074219 L 0 43 L 38.859375 43 L 27.382812 31.523438 C 26.338812 31.927437 25.452 32 25 32 C 24.241 32 22.268563 31.818437 20.351562 30.148438 C 20.000563 29.842437 18.591391 28.615781 16.650391 26.925781 z"/></svg>
